<?xml version="1.0" encoding="utf-8"?>
<!-- Generator: Adobe Illustrator 24.0.2, SVG Export Plug-In . SVG Version: 6.00 Build 0)  -->
<svg version="1.1" id="outline" xmlns="http://www.w3.org/2000/svg" xmlns:xlink="http://www.w3.org/1999/xlink" x="0px" y="0px"
	 viewBox="0 0 512 512" style="enable-background:new 0 0 512 512;" xml:space="preserve">
<style type="text/css">
	.st0{fill:#FFFFFF;}
</style>
<path class="st0" d="M40,424h208c4.4,0,8-3.6,8-8v-30.5l40.2-101.8c4.3-10.2-0.5-21.9-10.7-26.2c-2.5-1-5.1-1.6-7.8-1.6H154.6
	c-9.6,0-18.3,5.7-22.1,14.5c0,0.1-0.1,0.1-0.1,0.2L90.6,376H24c-4.4,0-8,3.6-8,8v16C16,413.2,26.8,424,40,424L40,424z M240,408h-64
	c-4.4,0-8-3.6-8-8v-8h72V408z M147.2,276.8c1.3-2.9,4.1-4.8,7.3-4.8h123.3c2.2,0,4,1.8,4,4c0,0.5-0.1,1.1-0.3,1.6
	c0,0.1-0.1,0.1-0.1,0.2L242.6,376H107.8L147.2,276.8z M32,392h120v8c0,2.7,0.5,5.4,1.4,8H40c-4.4,0-8-3.6-8-8L32,392z"/>
<path class="st0" d="M272,408v16h136c4.4,0,8-3.6,8-8v-88h56c13.2,0,24-10.8,24-24V112c0-13.2-10.8-24-24-24H208
	c-13.2,0-24,10.8-24,24v128h16V112c0-4.4,3.6-8,8-8h264c4.4,0,8,3.6,8,8v192c0,4.4-3.6,8-8,8H296v16h16v56h-40v16h112
	c4.4,0,8-3.6,8-8v-64h8v80H272z M376,384h-48v-56h16v16c0,4.4,3.6,8,8,8s8-3.6,8-8v-16h16V384z"/>
<circle class="st0" cx="160" cy="288" r="8"/>
<circle class="st0" cx="184" cy="288" r="8"/>
<circle class="st0" cx="216" cy="120" r="8"/>
<circle class="st0" cx="240" cy="120" r="8"/>
<circle class="st0" cx="264" cy="120" r="8"/>
<path class="st0" d="M322.3,245.7l24,24l11.3-11.3L339.3,240l18.3-18.3l-11.3-11.3l-24,24C319.2,237.5,319.2,242.5,322.3,245.7z"/>
<path class="st0" d="M437.7,269.7l24-24c3.1-3.1,3.1-8.2,0-11.3l-24-24l-11.3,11.3l18.3,18.3l-18.3,18.3L437.7,269.7z"/>
<path class="st0" d="M360.6,292.9l48-112l14.7,6.3l-48,112L360.6,292.9z"/>
<path class="st0" d="M216,152h16v16h-16V152z"/>
<path class="st0" d="M248,152h56v16h-56V152z"/>
<path class="st0" d="M216,184h16v16h-16V184z"/>
<path class="st0" d="M248,184h32v16h-32V184z"/>
<path class="st0" d="M216,216h16v16h-16V216z"/>
<path class="st0" d="M248,216h48v16h-48V216z"/>
<path class="st0" d="M320,152h32v16h-32V152z"/>
</svg>
